<svg width="35" height="30" viewBox="0 0 35 30" fill="none" xmlns="http://www.w3.org/2000/svg">
<path opacity="0.981" fill-rule="evenodd" clip-rule="evenodd" d="M34.1133 4.59731C34.1133 4.86382 34.1133 5.13033 34.1133 5.39684C32.7507 10.0469 31.407 14.7108 30.0824 19.3886C29.9824 19.6663 29.7937 19.855 29.516 19.955C23.5862 19.9772 17.6563 19.9994 11.7265 20.0216C11.458 20.3684 11.3359 20.757 11.36 21.1876C11.5053 21.6661 11.8274 21.9215 12.3261 21.9538C18.1059 21.9541 23.8803 21.9986 29.6493 22.0871C29.9886 22.2881 30.1441 22.5879 30.1157 22.9865C30.1441 23.3852 29.9886 23.685 29.6493 23.886C28.3671 23.9732 27.079 24.0177 25.7849 24.0193C26.8884 24.301 27.6324 24.9784 28.0169 26.0514C28.4091 27.8769 27.7539 29.1539 26.0514 29.8825C24.0838 30.2818 22.7846 29.5378 22.1537 27.6505C21.9141 26.0976 22.4804 24.9538 23.8527 24.2191C24.0462 24.1335 24.2461 24.0668 24.4523 24.0193C21.5429 23.9748 18.6335 23.9748 15.7241 24.0193C16.9345 24.3413 17.7008 25.1075 18.0228 26.3179C18.2545 27.7345 17.777 28.8338 16.5903 29.616C15.1205 30.302 13.8212 30.0688 12.6926 28.9164C12.0634 28.0516 11.8857 27.0965 12.1595 26.0514C12.544 24.9784 13.2881 24.301 14.3916 24.0193C13.481 23.9971 12.5704 23.9748 11.6598 23.9526C9.95816 23.4498 9.16969 22.306 9.29455 20.5213C9.40109 19.9749 9.60097 19.4641 9.8942 18.9889C9.93864 18.8778 9.93864 18.7668 9.8942 18.6557C8.31653 13.1222 6.72859 7.59215 5.13033 2.06546C3.62059 2.00995 2.11036 1.97664 0.599649 1.96552C0.320799 1.85306 0.120916 1.66428 0 1.39918C0 1.13267 0 0.866161 0 0.59965C0.120916 0.334552 0.320799 0.14577 0.599649 0.0333155C2.50964 -0.0111052 4.41963 -0.0111052 6.32962 0.0333155C6.51587 0.152792 6.68244 0.297148 6.82933 0.466395C7.17426 1.63419 7.51846 2.80017 7.86206 3.96435C16.4126 3.98655 24.9632 4.00877 33.5137 4.03097C33.7925 4.14343 33.9924 4.33221 34.1133 4.59731ZM8.46171 5.99649C16.2127 5.99649 23.9638 5.99649 31.7147 5.99649C30.6141 9.97609 29.4925 13.9516 28.3501 17.9228C25.6008 17.9671 22.8469 17.9894 20.0882 17.9895C17.3296 17.9894 14.5757 17.9671 11.8264 17.9228C10.6839 13.9516 9.5624 9.97609 8.46171 5.99649ZM14.7247 26.0514C15.6676 25.9615 16.0785 26.3835 15.9573 27.3173C15.5665 27.9667 15.0446 28.0889 14.3916 27.6838C13.9522 27.0184 14.0633 26.4744 14.7247 26.0514ZM24.7855 26.0514C25.7284 25.9615 26.1393 26.3835 26.0181 27.3173C25.6273 27.9667 25.1054 28.0889 24.4523 27.6838C24.013 27.0184 24.1241 26.4744 24.7855 26.0514Z" fill="black"/>
</svg>
