<svg width="30" height="30" viewBox="0 0 30 30" fill="none" xmlns="http://www.w3.org/2000/svg">
<path opacity="0.997" fill-rule="evenodd" clip-rule="evenodd" d="M0.527344 0C10.1758 0 19.8242 0 29.4727 0C29.5598 0.0763799 29.6575 0.144739 29.7656 0.205078C29.8358 0.323164 29.9139 0.430586 30 0.527344C30 0.761719 30 0.996094 30 1.23047C29.8937 1.4636 29.7179 1.62962 29.4727 1.72852C19.8242 1.76758 10.1758 1.76758 0.527344 1.72852C0.282118 1.62962 0.106337 1.4636 0 1.23047C0 0.996094 0 0.761719 0 0.527344C0.0763799 0.440219 0.144739 0.342562 0.205078 0.234375C0.323164 0.164263 0.430586 0.0861377 0.527344 0Z" fill="black"/>
<path opacity="0.964" fill-rule="evenodd" clip-rule="evenodd" d="M0.761689 7.03126C5.41017 7.02147 10.0586 7.03126 14.707 7.06056C15.1467 7.18788 15.3616 7.48085 15.3515 7.93946C15.3616 8.39807 15.1467 8.69104 14.707 8.81837C10.0586 8.85745 5.41012 8.85745 0.761689 8.81837C0.32196 8.69104 0.107116 8.39807 0.117158 7.93946C0.118952 7.47956 0.333796 7.17686 0.761689 7.03126Z" fill="black"/>
<path opacity="0.962" fill-rule="evenodd" clip-rule="evenodd" d="M30 23.3789C30 23.5938 30 23.8086 30 24.0234C29.6731 24.5978 29.2044 24.7443 28.5938 24.4629C27.0996 22.9687 25.6055 21.4746 24.1114 19.9805C22.2684 21.242 20.286 21.5057 18.1641 20.7715C15.2656 19.4188 13.9864 17.1435 14.3262 13.9453C14.7101 12.034 15.7354 10.5789 17.4024 9.58007C18.8328 8.83617 20.3367 8.64087 21.9141 8.99414C23.8643 9.51832 25.2608 10.7 26.1035 12.5391C26.9336 14.6672 26.7188 16.6789 25.459 18.5742C25.4199 18.6328 25.4199 18.6914 25.459 18.75C27.0074 20.269 28.5211 21.8119 30 23.3789ZM20.3907 10.6055C22.6802 10.7687 24.1158 11.9601 24.6973 14.1797C24.9657 16.3872 24.1161 17.9985 22.1485 19.0137C20.2016 19.716 18.5122 19.3156 17.0801 17.8125C15.7129 15.9375 15.7129 14.0625 17.0801 12.1875C17.9649 11.1933 19.0684 10.6659 20.3907 10.6055Z" fill="black"/>
<path opacity="0.991" fill-rule="evenodd" clip-rule="evenodd" d="M0.644579 14.1211C4.39463 14.1113 8.14464 14.1211 11.8946 14.1504C12.3876 14.4052 12.5536 14.8055 12.3926 15.3516C12.3047 15.5957 12.1387 15.7617 11.8946 15.8496C8.14458 15.8887 4.39458 15.8887 0.644579 15.8496C0.11872 15.5477 -0.0277651 15.1083 0.205125 14.5313C0.323174 14.3606 0.469659 14.2239 0.644579 14.1211Z" fill="black"/>
<path opacity="0.964" fill-rule="evenodd" clip-rule="evenodd" d="M0.761689 21.1524C5.01954 21.1426 9.27735 21.1524 13.5351 21.1816C13.9749 21.309 14.1897 21.6019 14.1797 22.0606C14.1897 22.5192 13.9749 22.8121 13.5351 22.9395C9.27729 22.9785 5.0195 22.9785 0.761689 22.9395C0.32196 22.8121 0.107116 22.5192 0.117158 22.0606C0.118952 21.6007 0.333796 21.298 0.761689 21.1524Z" fill="black"/>
<path opacity="0.997" fill-rule="evenodd" clip-rule="evenodd" d="M30 28.7695C30 29.0039 30 29.2383 30 29.4727C29.9236 29.5598 29.8553 29.6575 29.7949 29.7656C29.6769 29.8358 29.5694 29.9139 29.4727 30C19.8242 30 10.1758 30 0.527344 30C0.440219 29.9236 0.342562 29.8553 0.234375 29.7949C0.164263 29.6769 0.0861377 29.5694 0 29.4727C0 29.2383 0 29.0039 0 28.7695C0.106337 28.5364 0.282118 28.3704 0.527344 28.2715C10.1758 28.2324 19.8242 28.2324 29.4727 28.2715C29.7179 28.3704 29.8937 28.5364 30 28.7695Z" fill="black"/>
</svg>
