<svg width="30" height="30" viewBox="0 0 30 30" fill="none" xmlns="http://www.w3.org/2000/svg">
<path opacity="0.969" fill-rule="evenodd" clip-rule="evenodd" d="M14.209 0C14.7568 0 15.3048 0 15.8526 0C16.1987 0.153673 16.5314 0.339564 16.8506 0.557676C21.0478 4.75492 25.2451 8.95217 29.4423 13.1494C29.6605 13.4686 29.8463 13.8013 30 14.1474C30 14.6952 30 15.2432 30 15.791C29.44 17.1778 28.4029 17.843 26.8888 17.7869C26.8986 20.82 26.8888 23.8529 26.8594 26.8859C26.702 28.5498 25.8117 29.5771 24.1884 29.9677C22.2904 30.0069 20.3923 30.0069 18.4943 29.9677C18.2316 29.8616 18.0457 29.6758 17.9366 29.4101C17.917 26.9054 17.8974 24.4008 17.8779 21.8961C17.782 21.2133 17.4005 20.7927 16.7332 20.634C15.5983 20.5949 14.4633 20.5949 13.3284 20.634C12.6863 20.787 12.3047 21.1881 12.1837 21.8374C12.1642 24.3616 12.1446 26.8859 12.125 29.4101C12.0174 29.6742 11.8315 29.8601 11.5673 29.9677C9.6497 30.0069 7.73212 30.0069 5.81448 29.9677C4.27776 29.566 3.407 28.5778 3.2022 27.0033C3.17285 23.9312 3.16307 20.8591 3.17285 17.7869C1.24236 17.8125 0.185713 16.8733 0.0029047 14.9692C-0.022951 14.3914 0.123806 13.8631 0.443175 13.3842C4.67794 9.09076 8.93388 4.81523 13.211 0.557676C13.5302 0.339564 13.8629 0.153673 14.209 0ZM14.7373 1.76108C15.0784 1.71848 15.3915 1.78696 15.6765 1.96654C19.7955 6.08554 23.9145 10.2045 28.0335 14.3235C28.2544 14.6732 28.2935 15.0449 28.1509 15.4388C27.9721 15.6996 27.7276 15.8659 27.4171 15.9378C26.8301 15.9573 26.243 15.9769 25.656 15.9965C25.3918 16.1041 25.2059 16.29 25.0983 16.5542C25.0788 19.9981 25.0592 23.4419 25.0396 26.8859C24.9576 27.516 24.6151 27.9367 24.0123 28.148C22.5859 28.2318 21.1575 28.2612 19.727 28.236C19.7368 26.0835 19.727 23.931 19.6977 21.7787C19.4723 20.125 18.5429 19.1369 16.9093 18.8142C15.6374 18.7751 14.3655 18.7751 13.0936 18.8142C11.5452 19.1495 10.6353 20.0985 10.3639 21.6613C10.3346 23.8528 10.3248 26.0443 10.3346 28.236C8.90412 28.2612 7.4757 28.2318 6.04929 28.148C5.44647 27.9367 5.10404 27.516 5.02199 26.8859C5.00242 23.4419 4.98285 19.9981 4.96329 16.5542C4.85567 16.29 4.66977 16.1041 4.40561 15.9965C3.81858 15.9769 3.23155 15.9573 2.64453 15.9378C1.99967 15.7616 1.73551 15.3408 1.85204 14.6757C1.88498 14.5451 1.94368 14.4277 2.02815 14.3235C6.14714 10.2045 10.2661 6.08554 14.3851 1.96654C14.4985 1.88092 14.6159 1.81244 14.7373 1.76108Z" fill="black"/>
</svg>
