<svg width="26" height="30" viewBox="0 0 26 30" fill="none" xmlns="http://www.w3.org/2000/svg">
<path opacity="0.971" fill-rule="evenodd" clip-rule="evenodd" d="M20.6409 30C15.2307 30 9.82053 30 4.41039 30C2.5385 29.7595 1.20061 28.7829 0.396722 27.0703C0.219576 26.6366 0.102388 26.1874 0.0451598 25.7227C-0.112205 23.467 0.141699 21.2601 0.806879 19.1016C1.24365 17.7286 1.9956 16.5665 3.06274 15.6152C4.26461 14.7069 5.61227 14.3553 7.10571 14.5606C7.75041 14.9218 8.37543 15.3125 8.98071 15.7324C11.2152 17.0291 13.4809 17.0877 15.7776 15.9082C16.4904 15.4443 17.2131 14.9951 17.9456 14.5606C20.3481 14.3214 22.1743 15.2296 23.4241 17.2852C24.3616 19.0624 24.889 20.9569 25.0061 22.9688C25.0904 23.9073 25.0904 24.8448 25.0061 25.7813C24.5362 28.2083 23.0811 29.6146 20.6409 30ZM6.05102 16.2891C6.20846 16.2795 6.36473 16.2893 6.51977 16.3184C7.43096 16.9402 8.38803 17.487 9.39086 17.959C11.9807 18.9342 14.4807 18.7388 16.8909 17.3731C17.4377 17.0215 17.9846 16.6699 18.5315 16.3184C20.0066 16.3095 21.1101 16.9443 21.842 18.2227C22.5661 19.5555 22.9958 20.9813 23.1311 22.5C23.2428 23.5548 23.2624 24.6095 23.1897 25.6641C22.8935 26.9564 22.1025 27.7669 20.8166 28.0957C20.4681 28.1586 20.1165 28.1977 19.762 28.2129C14.9378 28.252 10.1135 28.252 5.2893 28.2129C3.91053 28.2611 2.86563 27.7044 2.15453 26.543C2.02161 26.2418 1.92395 25.9293 1.86157 25.6055C1.68958 23.3915 1.98255 21.2431 2.74047 19.1602C3.1388 18.1375 3.79311 17.3269 4.70336 16.7285C5.14229 16.5268 5.59153 16.3804 6.05102 16.2891Z" fill="black"/>
<path opacity="0.962" fill-rule="evenodd" clip-rule="evenodd" d="M11.4416 0C12.0471 0 12.6526 0 13.258 0C16.2051 0.515033 18.207 2.17519 19.2639 4.98047C20.1873 8.69695 19.0447 11.5778 15.8362 13.623C13.7507 14.6421 11.6218 14.7398 9.44945 13.916C6.33191 12.3568 4.89636 9.82752 5.1428 6.32812C5.52255 3.87847 6.78232 2.03276 8.9221 0.791016C9.72249 0.37761 10.5623 0.113938 11.4416 0ZM11.5588 1.81641C14.2621 1.61977 16.2055 2.73305 17.3889 5.15625C18.3101 8.03777 17.519 10.3131 15.0159 11.9824C13.4775 12.7625 11.8954 12.8602 10.2698 12.2754C7.30421 10.7085 6.3179 8.31586 7.31077 5.09766C8.1772 3.28308 9.59318 2.18933 11.5588 1.81641Z" fill="black"/>
</svg>
