<svg width="17" height="17" viewBox="0 0 17 17" fill="none" xmlns="http://www.w3.org/2000/svg">
<path opacity="0.969" fill-rule="evenodd" clip-rule="evenodd" d="M6.47461 0C6.9284 0 7.38215 0 7.83594 0C10.2485 0.305294 12.0913 1.48954 13.3643 3.55273C14.3387 5.30539 14.5711 7.15371 14.0615 9.09766C13.7795 10.0659 13.3202 10.9347 12.6836 11.7041C14.0615 13.082 15.4395 14.46 16.8174 15.8379C16.8962 15.9296 16.9571 16.0292 17 16.1367C17 16.2695 17 16.4023 17 16.5352C16.9225 16.7676 16.7676 16.9225 16.5352 17C16.4023 17 16.2695 17 16.1367 17C16.0292 16.9571 15.9296 16.8962 15.8379 16.8174C14.46 15.4395 13.082 14.0615 11.7041 12.6836C10.1813 13.9141 8.43811 14.4509 6.47461 14.2939C3.8923 13.9694 1.98314 12.6689 0.74707 10.3926C0.352142 9.579 0.10312 8.72681 0 7.83594C0 7.38215 0 6.9284 0 6.47461C0.354699 3.84426 1.70496 1.91294 4.05078 0.680664C4.82621 0.323671 5.63414 0.0967825 6.47461 0ZM7.03906 1.32812C9.61669 1.41788 11.4484 2.62426 12.5342 4.94727C13.3659 7.2505 12.9785 9.32018 11.3721 11.1562C9.5198 12.939 7.3782 13.3983 4.94727 12.5342C3.11803 11.723 1.96146 10.3451 1.47754 8.40039C1.05168 5.90262 1.84302 3.89383 3.85156 2.37402C4.81651 1.72218 5.87901 1.37355 7.03906 1.32812Z" fill="#8D8D8D"/>
</svg>
